#!OML:ASF X:\für Bonn\!DataBase\2005_08_11_Bastian_Final\c3d\Bastian.ASF
:FULLY-SPECIFIED
:DEGREES
110
root 0.0495974 7.31105 6.91484 169.135 -4.88311 -177.916
lowerback 36.9739 -0.345956 2.82177
upperback 7.38346 -2.06315 -1.24234
thorax -10.2119 -2.04824 -1.79558
lowerneck -23.1332 -5.48162 0.337883
upperneck -8.70737 -9.82254 9.58808
head 1.55554 -5.66624 2.2494
rclavicle 5.76476e-015 9.54166e-015
rhumerus 63.332 3.58589 -1.71297
rradius 42.2777
rwrist -50.6168
rhand -43.9326 -3.31249
rfingers 7.12502
rthumb -16.7563 -32.6094
lclavicle 5.76476e-015 9.54166e-015
lhumerus 64.6768 -6.15839 -10.9189
lradius 34.8101
lwrist 10.5026
lhand -45.8107 14.3646
lfingers 7.12502
lthumb -18.5636 43.4988
rfemur -56.7766 -70.2227 16.6417
rtibia 153.363
rfoot -55.7518 7.85719
rtoes 16.5772
lfemur -69.7639 39.411 -10.8948
ltibia 154.038
lfoot -45.4133 -28.2187
ltoes 5.04228
111
root 0.0555477 7.5049 6.93225 169.43 -4.85638 -177.904
lowerback 36.8185 -0.387306 2.86618
upperback 7.349 -2.07399 -1.21014
thorax -10.195 -2.04474 -1.78492
lowerneck -23.3084 -5.44149 0.27699
upperneck -8.66106 -9.77447 9.60765
head 1.60347 -5.63879 2.26482
rclavicle -2.18663e-015 9.14409e-015
rhumerus 63.417 3.70932 -1.44026
rradius 42.2657
rwrist -50.6487
rhand -44.0598 -3.36248
rfingers 7.12502
rthumb -16.8788 -32.649
lclavicle -2.18663e-015 9.14409e-015
lhumerus 64.7949 -6.32486 -10.6637
lradius 34.7314
lwrist 10.8167
lhand -45.7235 14.2555
lfingers 7.12502
lthumb -18.4798 43.3977
rfemur -60.413 -63.4546 20.8828
rtibia 151.809
rfoot -54.5849 7.77061
rtoes 15.8659
lfemur -69.2716 36.1606 -11.4047
ltibia 152.489
lfoot -45.1555 -27.3704
ltoes 3.90661
112
root 0.0615813 7.7053 6.94861 169.706 -4.82848 -177.936
lowerback 36.6578 -0.410484 2.88224
upperback 7.32626 -2.07782 -1.19058
thorax -10.1627 -2.03859 -1.776
lowerneck -23.4242 -5.41629 0.16905
upperneck -8.65442 -9.7295 9.6523
head 1.63226 -5.61388 2.29939
rclavicle 2.5842e-015 9.54166e-015
rhumerus 63.4873 3.80882 -1.14661
rradius 42.2592
rwrist -50.6292
rhand -44.211 -3.48835
rfingers 7.12502
rthumb -17.0243 -32.7624
lclavicle 2.5842e-015 9.54166e-015
lhumerus 64.8803 -6.47834 -10.5086
lradius 34.705
lwrist 11.0178
lhand -45.6483 14.0815
lfingers 7.12502
lthumb -18.4074 43.2305
rfemur -62.0879 -57.1069 23.1152
rtibia 150.209
rfoot -53.3577 7.55184
rtoes 15.1559
lfemur -68.7123 33.017 -11.9462
ltibia 150.888
lfoot -44.9285 -26.3461
ltoes 2.54491
113
root 0.0669525 7.91038 6.96392 169.956 -4.81489 -177.948
lowerback 36.5002 -0.454484 2.93489
upperback 7.31634 -2.10017 -1.18593
thorax -10.119 -2.04295 -1.79493
lowerneck -23.5202 -5.37593 0.0922067
upperneck -8.66744 -9.67504 9.72899
head 1.65089 -5.58717 2.34145
rclavicle 4.57205e-015 7.15625e-015
rhumerus 63.6087 3.88652 -1.05632
rradius 42.1755
rwrist -50.4517
rhand -44.3205 -3.6111
rfingers 7.12502
rthumb -17.1297 -32.876
lclavicle 4.57205e-015 7.15625e-015
lhumerus 64.9364 -6.59714 -10.4072
lradius 34.6638
lwrist 11.0096
lhand -45.6169 13.8657
lfingers 7.12502
lthumb -18.3771 43.0176
rfemur -62.7828 -51.424 24.4013
rtibia 148.563
rfoot -52.1168 7.2702
rtoes 14.4867
lfemur -68.0844 30.0576 -12.4209
ltibia 149.234
lfoot -44.6446 -25.2785
ltoes 1.20998
